# xmcd CD database file
#
# Track frame offsets:
#	150
#	12817
#	30525
#	45807
#	69122
#	93595
#	114030
#	126702
#	141102
#	153197
#	178555
#	201175
#	225034
#	235152
#	253320
#	271230
#
# Disc length: 3832 seconds
#
# Revision: 7
# Processed by: cddbd v1.5.2PL0 Copyright (c) Steve Scherf et al.
# Submitted via: CDex 1.70beta2
#
DISCID=c20ef610
DTITLE=Chris Hinze with Louis van Dijk and Jan Goudswaard - Bach Meets Jazz
DYEAR=1999
DGENRE=Jazz
TTITLE0=Badinerie, from Suite No. 2 in B minor
TTITLE1=Largo, from Flute Sonata in B minor
TTITLE2=Gavotte. from Suite No. 3 in D major
TTITLE3=Allegro, from Brandenburg Concerto No. 3
TTITLE4=Schafe können sicher weiden, from Cantata BWV 208
TTITLE5=So ist mein Jesus nun gefangen, from Matthäus Passion
TTITLE6=Menuet
TTITLE7=Air, from Suite No. 3 in D major
TTITLE8=Double
TTITLE9=Wir setzen uns mit Tränen nieder, from Matthäus Passion
TTITLE10=Wachet auf, ruft uns die Stimme
TTITLE11=O Haupt voll Blut und Wunden, from Matthäus Passion
TTITLE12=Sarabande
TTITLE13=Allegro, from Violin concerto in A minor
TTITLE14=Ich folge dir gleichfalls mit freudigen Schritten, from Johannes Passion
TTITLE15=Siciliano, from Flute Sonata
EXTD=313 YEAR: 1999
EXTT0=
EXTT1=
EXTT2=
EXTT3=
EXTT4=
EXTT5=
EXTT6=
EXTT7=
EXTT8=
EXTT9=
EXTT10=
EXTT11=
EXTT12=
EXTT13=
EXTT14=
EXTT15=
PLAYORDER=
